<?xml version="1.0" ?><svg enable-background="new 0 0 176.7969 199.0879" id="playstore" version="1.1" viewBox="0 0 176.7969 199.0879" xml:space="preserve" xmlns="http://www.w3.org/2000/svg" xmlns:xlink="http://www.w3.org/1999/xlink"><path d="M168.8281,95.2168L20.0039,15.6465c-5.0078-2.6758-10.0859-2.8789-13.9375-0.5586  C2.2109,17.3965,0,21.9629,0,27.6074v157.3711c0,5.6289,2.2148,10.1875,6.0781,12.5039c1.7891,1.0703,3.8359,1.6055,6.0156,1.6055  c2.5273,0,5.2305-0.7227,7.9102-2.1523l148.8242-79.5703c6.9336-3.7031,7.9688-8.5273,7.9688-11.0703  C176.7969,103.748,175.7617,98.9238,168.8281,95.2168z" fill="#1C71DA"/><path d="M165.0547,110.3105L16.2305,189.8809c-2.4414,1.3047-4.6484,1.5742-6.0391,0.7383  C8.7969,189.7832,8,187.7285,8,184.9785V27.6074c0-2.7656,0.793-4.8281,2.1797-5.6602c0.5273-0.3164,1.1758-0.4727,1.9102-0.4727  c1.1953,0,2.6211,0.4141,4.1406,1.2266l148.8242,79.5703c2.3086,1.2344,3.7422,2.7734,3.7422,4.0234  C168.7969,107.5371,167.3633,109.0762,165.0547,110.3105z" fill="#5CB0FF"/><path d="M42.1759,22.1416c-1.0234,0-2.0479-0.3906-2.8281-1.1719c-1.5625-1.5615-1.5625-4.0947,0-5.6562  L53.4904,1.1719c1.5625-1.5625,4.0957-1.5625,5.6562,0c1.5625,1.5615,1.5625,4.0947,0,5.6562L45.0041,20.9697  C44.2228,21.751,43.1994,22.1416,42.1759,22.1416z" fill="#FF5D5D"/><path d="M56.3185,22.1416c-1.0234,0-2.0469-0.3906-2.8281-1.1719L39.3478,6.8281  c-1.5625-1.5615-1.5625-4.0947,0-5.6562c1.5605-1.5625,4.0938-1.5625,5.6562,0l14.1426,14.1416  c1.5625,1.5615,1.5625,4.0947,0,5.6562C58.3664,21.751,57.3419,22.1416,56.3185,22.1416z" fill="#FF5D5D"/><path d="M152.1759,62.1416c-7.7197,0-14-6.2803-14-14s6.2803-14,14-14s14,6.2803,14,14  S159.8957,62.1416,152.1759,62.1416z M152.1759,42.1416c-3.3086,0-6,2.6914-6,6s2.6914,6,6,6s6-2.6914,6-6  S155.4845,42.1416,152.1759,42.1416z" fill="#00D40B"/><path d="M121.4894,188.7686c-1.0234,0-2.0479-0.3906-2.8281-1.1719l-11.3135-11.3135  c-1.5625-1.5615-1.5625-4.0947,0-5.6562l11.3135-11.3135c1.5605-1.5625,4.0957-1.5625,5.6562,0l11.3135,11.3135  c1.5625,1.5615,1.5625,4.0947,0,5.6562l-11.3135,11.3135C123.5373,188.3779,122.5128,188.7686,121.4894,188.7686z   M115.8332,173.4551l5.6562,5.6562l5.6562-5.6562l-5.6562-5.6562L115.8332,173.4551z" fill="#FFC504"/></svg>